<svg aria-hidden="true" style="position: absolute; width: 0; height: 0; overflow: hidden;" version="1.1" xmlns="http://www.w3.org/2000/svg" xmlns:xlink="http://www.w3.org/1999/xlink">
<defs>
<symbol id="icon-cross" viewBox="0 0 32 32">
<path d="M23.734 10.304l-1.504-1.504-5.963 5.962-5.962-5.962-1.504 1.504 5.962 5.962-5.962 5.963 1.504 1.504 5.962-5.963 5.963 5.963 1.504-1.504-5.963-5.963 5.963-5.962z"></path>
</symbol>
<symbol id="icon-menu" viewBox="0 0 32 32">
<path d="M2.667 6.667v2.667h26.667v-2.667h-26.667zM2.667 14.667v2.667h26.667v-2.667h-26.667zM2.667 22.667v2.667h26.667v-2.667h-26.667z"></path>
</symbol>
<symbol id="icon-calendar" viewBox="0 0 32 32">
<path d="M7 20h2c1.105 0 2-0.896 2-2v-2c0-1.105-0.895-2-2-2h-2c-1.105 0-2 0.895-2 2v2c0 1.104 0.895 2 2 2zM7 16h2v2h-2v-2zM23 28h2c1.105 0 2-0.895 2-2v-2c0-1.105-0.895-2-2-2h-2c-1.104 0-2 0.895-2 2v2c0 1.105 0.895 2 2 2zM23 24h2v2h-2v-2zM23 20h2c1.105 0 2-0.896 2-2v-2c0-1.105-0.895-2-2-2h-2c-1.104 0-2 0.895-2 2v2c0 1.104 0.895 2 2 2zM23 16h2v2h-2v-2zM27 2h-4v-1c0-0.552-0.448-1-1-1s-1 0.448-1 1v1h-10v-1c-0-0.552-0.448-1-1-1s-1 0.448-1 1v1h-4c-2.209 0-4 1.791-4 4v22c0 2.209 1.791 4 4 4h22c2.209 0 4-1.791 4-4v-22c0-2.209-1.791-4-4-4zM29 28c0 1.105-0.895 2-2 2h-22c-1.105 0-2-0.896-2-2v-18h26v18zM29 8h-26v-2c0-1.105 0.895-2 2-2h4v1c0 0.552 0.448 1 1 1s1-0.448 1-1v-1h10v1c0 0.552 0.448 1 1 1s1-0.448 1-1v-1h4c1.105 0 2 0.895 2 2v2zM15 28h2c1.105 0 2-0.895 2-2v-2c0-1.105-0.895-2-2-2h-2c-1.104 0-2 0.895-2 2v2c0 1.105 0.895 2 2 2zM15 24h2v2h-2v-2zM15 20h2c1.105 0 2-0.896 2-2v-2c0-1.105-0.895-2-2-2h-2c-1.104 0-2 0.895-2 2v2c0 1.104 0.895 2 2 2zM15 16h2v2h-2v-2zM7 28h2c1.105 0 2-0.895 2-2v-2c0-1.105-0.895-2-2-2h-2c-1.105 0-2 0.895-2 2v2c0 1.105 0.895 2 2 2zM7 24h2v2h-2v-2z"></path>
</symbol>
<symbol id="icon-key" viewBox="0 0 32 32">
<path d="M17.673 14.68c-0.207-1.739-0.406-3.313-0.62-4.806 0.239-0.254 0.473-0.5 0.713-0.747 2.267-2.387 4.233-4.447 4.233-6.46 0-1.473-1.193-2.667-2.667-2.667-1.053 0-1.967 0.427-2.647 1.227-1.5 1.761-1.553 4.947-1.347 6.213 0.094 0.547 0.173 1.107 0.261 1.673-0.173 0.22-0.34 0.44-0.507 0.66-0.567 0.746-1.134 1.48-1.653 2.207-1.453 1.873-2.573 3.893-2.747 6.099-0.020 0.193-0.027 0.393-0.027 0.587 0 3.587 3.447 6 6.667 6 0.007 0 0.087 0 0.227-0.013 0.133 1.079 0.287 2.227 0.447 3.433 0.12 0.913 0 1.587-0.367 2.007-0.014 0.007-0.026 0.018-0.033 0.032l-0 0c-0.28 0.181-0.754 0.427-1.041 0.273-0.333-0.186-0.573-0.913-0.567-1.727 0.007-0.533-0.2-1.033-0.573-1.413-0.365-0.366-0.869-0.593-1.427-0.593h-0c-1.1 0-2 0.9-2 2 0 0.773 0.34 1.541 0.953 2.147 0.76 0.766 1.839 1.186 3.033 1.186h0.013c1.14 0 2.053-0.36 2.64-1.033 0.633-0.713 0.86-1.747 0.687-3.053-0.167-1.26-0.32-2.44-0.46-3.553 1.36-0.493 3.133-1.76 3.133-5.027 0-2.233-1.487-4.487-4.327-4.653zM13.893 29.874c-0.353-0.355-0.56-0.794-0.56-1.207 0-0.367 0.3-0.667 0.667-0.667 0.18 0 0.347 0.073 0.473 0.2s0.193 0.287 0.193 0.46c0 0.327 0.027 1.147 0.353 1.867-0.442-0.127-0.821-0.352-1.126-0.653l0 0zM18.739 4.367c-0.353 0.707-0.773 1.401-1.22 2.087 0.301-2.026 0.874-2.76 1.094-2.973 0.14-0.134 0.239-0.16 0.247-0.167 0.060 0.046 0.187 0.433-0.121 1.053zM17.7 2.087c0.433-0.507 0.967-0.753 1.633-0.753 0.733 0 1.333 0.6 1.333 1.333 0 0.433-0.167 0.913-0.447 1.427 0.12-0.66 0-1.267-0.374-1.674-0.379-0.413-0.953-0.54-1.5-0.333-0.34 0.133-0.906 0.5-1.393 1.5 0.173-0.573 0.407-1.1 0.747-1.5zM12 18.667c0-1.953 1.087-3.887 2.507-5.88 0.433-0.56 0.893-1.107 1.38-1.647 0.153 1.16 0.307 2.373 0.459 3.681-1.086 0.333-2.12 1.18-2.66 2.253-0.659 1.314-0.5 2.734 0.447 3.993l1.48 1.974c-1.821-0.607-3.613-2.107-3.613-4.374zM17.293 23.333c-0.524-0.011-1.025-0.093-1.498-0.237l0.039 0.010-0.513-2.573c0-0.007-0.22-1.207 0.373-1.933 0.234-0.287 0.587-0.474 1.046-0.553 0.194 1.613 0.407 3.353 0.647 5.273-0.034 0.006-0.060 0.006-0.094 0.013zM18.686 22.947c-0.219-1.761-0.419-3.36-0.599-4.853 1.287 0.319 2.027 1.439 2.093 2.5 0.053 0.853-0.347 1.806-1.494 2.353zM17.333 16.667c-0.94 0-1.7 0.233-2.267 0.686 0.527-0.78 1.467-1.353 2.267-1.353 1.653 0 2.653 0.9 3.087 2.007-0.727-0.793-1.787-1.34-3.087-1.34z"></path>
</symbol>
<symbol id="icon-masks" viewBox="0 0 32 32">
<path d="M31.803 5.957c-0.069-0.258-0.247-0.465-0.48-0.573l-0.005-0.002c-0.24-0.105-0.515-0.095-0.755 0.030-2.957 1.575-6.204 2.45-9.525 2.305-0.028-0.353-0.085-0.679-0.169-0.993l0.009 0.038c-0.097-0.374-0.432-0.646-0.831-0.646-0.148 0-0.287 0.038-0.409 0.104l0.005-0.002c-0.73 0.39-1.465 0.73-2.2 1.015-1.69-0.39-3.405-1.010-5.14-1.855-0.473-0.221-1.048 0.013-1.2 0.535-0.185 0.655-0.225 1.555-0.14 2.62-3.085 0.040-6.305-0.75-9.585-2.345-0.23-0.115-0.5-0.115-0.73-0.010s-0.4 0.305-0.465 0.54c-0.87 3.105 1.47 11.895 5.060 16.625 1.695 2.235 3.47 3.365 5.315 3.365h0.005c2.045-0.15 4.040-1.505 5.79-3.94 1.63 2.080 3.35 3.135 5.13 3.135 2.205-0.16 4.345-1.725 6.19-4.52 2.988-4.506 4.976-12.239 4.13-15.425zM23.503 19.927c-1-1-2.565-1.13-3.715-0.31l-0.58-0.815c0.625-0.453 1.408-0.724 2.253-0.724 1.074 0 2.045 0.437 2.746 1.144l0 0-0.705 0.705zM23.638 13.502l-0.705-0.705c1.385-1.39 3.64-1.39 5.030 0l-0.71 0.705c-0.995-0.995-2.615-0.995-3.615 0zM10.528 25.706c-1.845 0-3.46-1.615-4.49-2.97-3.54-4.67-5.525-12.83-4.935-15.575 3.4 1.63 6.75 2.425 9.97 2.37 2.924 0 6.242-0.945 8.88-2.345 0.674 3.143-1.476 10.992-4.23 14.73-1.17 1.705-2.975 3.63-5.195 3.79z"></path>
<path d="M9.042 13.609c-0.643-0.645-1.533-1.044-2.516-1.044s-1.872 0.399-2.516 1.044l-0 0 0.707 0.707c0.462-0.463 1.101-0.75 1.806-0.751h0c0.707 0 1.347 0.287 1.81 0.751l0 0 0.707-0.707zM17.040 13.609c-0.644-0.643-1.534-1.041-2.516-1.041s-1.871 0.398-2.516 1.041l0-0 0.707 0.707c0.463-0.462 1.103-0.748 1.809-0.748s1.345 0.286 1.809 0.748l-0-0 0.707-0.707zM10.127 20.88c-0.749-0.069-1.485-0.678-2.186-1.81l-0.85 0.527c0.888 1.433 1.851 2.178 2.945 2.279 0.082 0.008 0.165 0.011 0.248 0.011 1.124 0 2.303-0.695 3.595-2.115l-0.74-0.674c-1.146 1.26-2.158 1.859-3.013 1.782z"></path>
</symbol>
<symbol id="icon-ball" viewBox="0 0 32 32">
<path d="M16 0c-8.832 0-16 7.168-16 16 0 0.896 0.128 1.664 0.256 2.56 0 0.256 0.128 0.384 0.128 0.64 1.536 7.296 7.936 12.8 15.744 12.8 8.704 0 15.872-7.168 15.872-16s-7.168-16-16-16zM16.64 3.2c0-0.64 0-1.28-0.128-1.92 6.4 0.256 11.776 4.608 13.568 10.496-3.072 0.512-5.76 1.792-7.936 3.712-1.792-2.432-4.096-4.608-6.656-6.272 0.768-1.92 1.152-3.968 1.152-6.016zM15.232 1.28c0.128 0.64 0.128 1.28 0.128 1.92 0 1.792-0.384 3.584-1.024 5.248-2.56-1.536-5.504-2.56-8.576-3.072 2.432-2.304 5.76-3.84 9.472-4.096zM1.28 16c0-3.584 1.28-6.912 3.456-9.472 3.328 0.384 6.4 1.408 9.216 3.072-2.304 4.736-7.040 7.936-12.416 8.32-0.256-0.64-0.256-1.28-0.256-1.92zM16 30.72c-7.040 0-12.928-4.992-14.336-11.52 5.888-0.384 10.88-3.84 13.312-8.832 2.432 1.664 4.48 3.584 6.272 6.016-2.816 2.816-4.608 6.784-4.608 11.136 0 1.024 0.128 2.176 0.256 3.2h-0.896zM18.176 30.592c-0.256-1.024-0.256-2.048-0.256-3.072 0-3.968 1.536-7.424 3.968-10.112 1.792 2.944 3.072 6.272 3.456 9.856-1.92 1.664-4.352 2.816-7.168 3.328zM26.624 26.24c-0.512-3.584-1.792-6.784-3.712-9.728 2.048-1.792 4.608-3.072 7.552-3.584 0.256 1.024 0.256 2.048 0.256 3.072 0 3.968-1.536 7.552-4.096 10.24z"></path>
</symbol>
<symbol id="icon-insta" viewBox="0 0 32 32">
<path d="M31.563 16.063c0 2.175-0.044 4.356 0.012 6.531 0.094 3.85-2.325 6.825-5.406 8.15-1.238 0.531-2.538 0.813-3.881 0.813-4.206 0.006-8.419 0.063-12.625-0.019-3.169-0.063-5.775-1.387-7.644-4-0.981-1.375-1.45-2.938-1.45-4.631v-13.438c0-3.656 1.781-6.213 4.944-7.875 1.375-0.719 2.869-1.025 4.425-1.031 4.081 0 8.169-0.025 12.25 0.012 3.169 0.025 5.813 1.238 7.762 3.787 1.087 1.425 1.613 3.063 1.613 4.862v6.838zM2.875 16.063v6.875c0 1.025 0.237 1.988 0.769 2.856 1.394 2.281 3.5 3.394 6.112 3.438 4.194 0.063 8.394 0.025 12.594 0.012 1.031 0 2.031-0.212 2.962-0.656 2.538-1.212 3.956-3.144 3.944-6.044-0.025-4.438-0.006-8.875-0.006-13.313 0-1.256-0.356-2.406-1.1-3.419-1.438-1.944-3.425-2.9-5.8-2.925-4.188-0.050-8.375-0.019-12.563-0.013-0.894 0-1.756 0.181-2.594 0.494-2.3 0.856-4.438 3.025-4.338 6.219 0.075 2.162 0.019 4.319 0.019 6.475z"></path>
<path d="M16.1 22.688c-4.031 0-7.281-3.212-7.287-7.213-0.006-3.938 3.269-7.162 7.275-7.162 4.019-0.006 7.281 3.213 7.287 7.181 0 3.963-3.256 7.187-7.275 7.194zM16.1 20.375c2.744 0 4.969-2.194 4.962-4.894-0.006-2.675-2.231-4.863-4.962-4.863-2.744 0-4.981 2.181-4.981 4.875 0.006 2.7 2.238 4.887 4.981 4.881zM24.219 6.125c0.844 0 1.531 0.719 1.531 1.6-0.006 0.881-0.7 1.594-1.544 1.588-0.831-0.006-1.512-0.719-1.512-1.581-0.006-0.881 0.681-1.606 1.525-1.606z"></path>
</symbol>
<symbol id="icon-facebook" viewBox="0 0 32 32">
<path d="M16.175 31.7c-8.65 0.038-15.762-7.162-15.556-15.956 0.194-8.375 7.131-15.294 15.756-15.2 8.544 0.094 15.613 7.206 15.381 16.012-0.219 8.337-7.1 15.188-15.581 15.144zM2.513 16.144c0.069 7.831 6.419 13.863 13.919 13.731 7.262-0.131 13.419-6.050 13.419-13.75 0-7.831-6.4-13.887-13.925-13.744-7.262 0.131-13.363 6.069-13.412 13.762z"></path>
<path d="M12.925 27.087v-11.019h-2.406v-3.713c0.106-0.006 0.213-0.019 0.325-0.019 0.581 0 1.169-0.012 1.75 0.006 0.256 0.006 0.344-0.063 0.338-0.325-0.012-0.95-0.012-1.894-0.006-2.844 0.006-1.069 0.306-2.037 1.069-2.813 0.738-0.75 1.681-1.156 2.706-1.219 1.65-0.094 3.306-0.081 4.963-0.112 0.019 0 0.038 0.019 0.075 0.037v3.813c-0.119 0.006-0.231 0.012-0.337 0.012h-2.25c-0.756 0.006-1.2 0.456-1.2 1.2 0 0.706 0 1.419 0.006 2.125 0 0.019 0.012 0.037 0.031 0.106h3.8c-0.163 1.269-0.313 2.481-0.475 3.738h-3.375v11.037c-1.681-0.012-3.319-0.012-5.012-0.012z"></path>
</symbol>
</defs>
</svg>
